<?xml version="1.0" encoding="UTF-8" standalone="no"?>
<svg
   xmlns:dc="http://purl.org/dc/elements/1.1/"
   xmlns:cc="http://creativecommons.org/ns#"
   xmlns:rdf="http://www.w3.org/1999/02/22-rdf-syntax-ns#"
   xmlns:svg="http://www.w3.org/2000/svg"
   xmlns="http://www.w3.org/2000/svg"
   xmlns:sodipodi="http://sodipodi.sourceforge.net/DTD/sodipodi-0.dtd"
   xmlns:inkscape="http://www.inkscape.org/namespaces/inkscape"
   width="100%"
   height="100%"
   viewBox="0 0 1000 1000"
   version="1.1"
   xml:space="preserve"
   style="fill-rule:evenodd;clip-rule:evenodd;stroke-linejoin:round;stroke-miterlimit:1.41421;"
   id="svg6215"
   sodipodi:docname="amh.svg"
   inkscape:version="0.92.2 5c3e80d, 2017-08-06"><metadata
     id="metadata6221"><rdf:RDF><cc:Work
         rdf:about=""><dc:format>image/svg+xml</dc:format><dc:type
           rdf:resource="http://purl.org/dc/dcmitype/StillImage" /></cc:Work></rdf:RDF></metadata><defs
     id="defs6219" /><sodipodi:namedview
     pagecolor="#ffffff"
     bordercolor="#666666"
     borderopacity="1"
     objecttolerance="10"
     gridtolerance="10"
     guidetolerance="10"
     inkscape:pageopacity="0"
     inkscape:pageshadow="2"
     inkscape:window-width="1159"
     inkscape:window-height="770"
     id="namedview6217"
     showgrid="false"
     inkscape:zoom="0.6675088"
     inkscape:cx="500"
     inkscape:cy="500"
     inkscape:window-x="0"
     inkscape:window-y="0"
     inkscape:window-maximized="0"
     inkscape:current-layer="svg6215" /><path
     style="fill:none;stroke:#000;stroke-width:1px;"
     d="m 484.358,477.316 c -1.27,-0.112 -2.434,-2.09 -3.254,-4.903 -0.559,-1.412 -1.134,-3.053 -1.638,-4.858 -0.718,-1.777 -1.233,-3.755 -2.06,-5.781 l -0.133,-0.381 -0.255,-0.729 c -0.055,-0.143 -0.051,-0.194 -0.157,-0.412 l -0.344,-0.694 -1.372,-2.775 -0.687,-1.389 -0.341,-0.695 -0.545,-0.837 -2.196,-3.371 -2.962,-4.504 c -0.241,-0.269 -0.013,-0.215 0.171,-0.198 l 0.514,0.027 1.113,0.062 2.278,0.126 9.114,0.507 11.198,0.623 18.228,1.011 36.457,2.026 22.985,1.277 4.558,0.255 2.278,0.126 0.572,0.031 c 0.15,-0.021 0.109,0.047 0.031,0.136 l -0.167,0.225 -0.661,0.905 -5.297,7.238 -2.703,3.841 -0.678,0.974 -0.276,0.442 -0.545,0.879 c -0.796,1.14 -1.222,2.451 -1.865,3.666 -4.61,9.969 -4.688,21.579 -1.386,32.372 0.235,0.912 0.589,1.784 0.844,2.655 2.394,7.793 4.403,14.208 2.343,15.559 -1.9,1.311 -7.698,-3.612 -11.106,-12.471 -0.347,-0.987 -0.763,-1.978 -1.042,-3.037 -1.872,-6.24 -2.901,-12.835 -2.683,-19.501 0.205,-6.66 1.733,-13.343 4.501,-19.437 0.763,-1.481 1.338,-3.082 2.271,-4.461 l 0.654,-1.062 0.323,-0.527 v 0.013 l -13.469,-0.749 -61.715,-3.428 0.126,0.282 0.17,0.378 0.041,0.095 0.143,0.392 0.316,0.889 0.16,0.463 c 0.967,2.478 1.345,5.028 1.669,7.292 0.119,2.322 0.047,4.416 -0.222,6.139 -0.844,3.493 -2.025,5.406 -3.299,5.294"
     id="path6137" /><path
     style="fill:none;stroke:#000;stroke-width:1px;"
     d="m 987.065,496.79 c 0,270.766 -219.5,490.266 -490.267,490.266 C 226.031,987.056 6.532,767.556 6.532,496.79 6.532,226.023 226.031,6.523 496.798,6.523 c 270.767,0 490.267,219.5 490.267,490.267"
     id="path6139" /><path
     style="fill:none;stroke:#000;stroke-width:1px;"
     d="m 587.947,702.906 c 0.929,1.702 -1.171,4.848 -5.887,9.138 -2.359,2.134 -5.345,4.593 -8.968,7.221 -3.728,2.445 -8.072,5.1 -12.964,7.919 -2.414,1.474 -5.087,2.758 -7.906,4.041 -2.829,1.284 -5.771,2.622 -8.818,3.997 -3.02,1.464 -6.384,2.455 -9.781,3.647 -3.429,1.11 -6.912,2.417 -10.623,3.384 -14.796,3.936 -32.068,6.162 -50.191,4.705 -18.102,-1.481 -34.955,-6.462 -48.781,-13.097 -3.528,-1.543 -6.718,-3.453 -9.918,-5.128 -1.576,-0.865 -3.132,-1.722 -4.661,-2.567 -1.457,-0.936 -2.894,-1.862 -4.307,-2.771 -2.805,-1.832 -5.519,-3.592 -8.052,-5.362 -2.434,-1.88 -4.773,-3.691 -7.006,-5.41 -17.487,-14.184 -25.675,-25.498 -23.438,-28.443 2.424,-3.231 14.991,2.513 34.002,11.624 19.035,8.91 44.795,20.999 74.48,23.161 14.813,1.175 29.14,0.126 42.292,-1.988 3.285,-0.5 6.469,-1.331 9.601,-1.91 3.119,-0.664 6.203,-1.076 9.111,-1.968 2.945,-0.759 5.791,-1.481 8.528,-2.179 2.762,-0.653 5.427,-1.283 7.92,-2.111 5.028,-1.501 9.659,-2.757 13.812,-3.748 4.079,-1.185 7.654,-2.155 10.694,-2.754 6.071,-1.209 9.931,-1.104 10.861,0.599"
     id="path6141" /><path
     style="fill:none;stroke:#000;stroke-width:1px;"
     d="m 366.646,664.604 c -0.48,1.191 -4.777,0.725 -11.235,-1.209 -3.167,-0.892 -7.113,-2.427 -10.681,-3.306 -0.885,-0.235 -1.613,-0.245 -1.944,-0.208 -0.299,0.089 -0.047,0.035 -0.275,0.235 -0.426,0.426 -1.076,1.893 -1.315,3.854 -0.429,4.032 0.082,8.607 0.766,12.662 0.692,4.089 1.516,7.827 2.244,10.987 1.44,6.322 2.356,10.425 1.161,11.031 -1.103,0.565 -4.177,-2.574 -7.371,-8.736 -1.597,-3.075 -3.183,-6.905 -4.45,-11.392 -1.225,-4.501 -2.26,-9.622 -1.641,-15.726 0.446,-3.013 1.321,-6.592 4.45,-9.482 1.512,-1.45 4.086,-2.428 6.091,-2.37 1.964,0.014 3.483,0.433 4.695,0.858 4.817,1.805 7.987,3.837 10.939,5.533 5.71,3.459 9.053,6.06 8.566,7.269"
     id="path6143" /><path
     style="fill:none;stroke:#000;stroke-width:1px;"
     d="m 610.928,708.884 c -1.174,-0.644 -0.422,-4.103 0.838,-9.124 0.582,-2.486 1.307,-5.465 1.392,-8.263 0.038,-1.379 -0.119,-2.683 -0.504,-3.466 -0.388,-0.78 -0.786,-1.199 -1.777,-1.75 -2.097,-1.063 -5.781,-1.335 -8.978,-1.301 -3.272,0.01 -6.38,0.238 -9.026,0.358 -5.307,0.272 -8.841,0.112 -9.182,-1.158 -0.33,-1.222 2.55,-3.316 7.817,-5.318 2.642,-0.984 5.877,-1.951 9.741,-2.489 3.844,-0.412 8.385,-0.943 13.84,1.542 2.703,1.291 5.226,4.011 6.159,6.905 0.99,2.884 0.817,5.444 0.49,7.599 -0.773,4.317 -2.4,7.422 -3.875,9.914 -3.057,4.903 -5.852,7.15 -6.935,6.551"
     id="path6145" /><path
     style="fill:none;stroke:#000;stroke-width:1px;"
     d="m 365.791,860.37 c -2.481,0.718 -5.733,-2.52 -9.008,-8.471 -1.597,-2.979 -3.395,-6.591 -4.63,-10.786 -0.664,-2.09 -1.298,-4.303 -1.893,-6.605 -0.28,-1.161 -0.566,-2.339 -0.855,-3.53 l -0.402,-1.815 c -0.136,-0.579 -0.276,-1.41 -0.252,-1.29 -1.978,-12.322 -3.704,-24.718 -4.473,-37.138 -0.017,-0.201 -0.017,-0.405 0.003,-0.606 0,-0.099 0.017,0.014 0.007,-0.266 l -0.038,-0.912 -0.051,-1.787 c -0.051,-2.374 0.068,-4.648 0.184,-6.823 0.242,-4.362 0.8,-8.233 1.549,-11.491 1.478,-6.489 3.653,-10.452 6.241,-10.619 2.577,-0.167 5.086,3.81 6.993,10.18 0.947,3.173 1.757,6.955 2.451,11.092 0.351,2.074 0.596,4.263 0.892,6.51 l 0.212,1.702 0.095,0.858 c 0.03,0.272 0.03,0.16 0.047,0.252 0.045,0.187 0.075,0.381 0.092,0.572 0.729,11.865 2.38,23.574 4.243,35.251 -0.024,-0.112 0.098,0.671 0.214,1.223 l 0.313,1.722 c 0.184,1.151 0.365,2.282 0.542,3.391 0.323,2.234 0.575,4.396 0.752,6.476 0.262,4.184 0.681,7.929 0.606,11.201 -0.075,6.517 -1.348,10.99 -3.834,11.709"
     id="path6147" /><path
     style="fill:none;stroke:#000;stroke-width:1px;"
     d="m 328.341,826.324 c -2.513,0.599 -5.761,-2.7 -8.955,-8.444 -1.566,-2.88 -3.251,-6.346 -4.824,-10.261 -0.776,-1.941 -1.552,-4.038 -2.319,-6.258 -0.364,-1.11 -0.732,-2.234 -1.106,-3.378 l -0.528,-1.777 -0.33,-1.236 c -1.243,-4.528 -2.281,-9.441 -2.982,-14.282 -0.011,-0.082 -0.004,-0.16 0.02,-0.242 0,-0.078 0.027,0.102 0.003,-0.197 l -0.078,-0.954 -0.136,-1.879 c -0.187,-2.502 -0.255,-4.889 -0.109,-7.075 0.204,-4.436 0.613,-8.426 1.413,-11.678 1.505,-6.564 3.728,-10.598 6.312,-10.646 2.588,-0.048 5.046,3.864 6.925,10.159 0.889,3.187 1.839,6.83 2.557,10.895 0.317,2.06 0.729,4.117 1.12,6.21 l 0.269,1.597 0.126,0.81 c 0.037,0.252 0.031,0.099 0.048,0.167 0.037,0.058 0.061,0.126 0.068,0.191 0.596,4.065 1.406,7.967 2.543,12.124 0.524,2.134 1.032,4.208 1.525,6.223 0.508,2.227 0.937,4.437 1.28,6.595 0.692,4.283 1.08,8.202 1.022,11.573 -0.048,6.741 -1.348,11.163 -3.864,11.763"
     id="path6149" /><path
     style="fill:none;stroke:#000;stroke-width:1px;"
     d="m 282.378,769.296 c -2.55,0.432 -5.519,-3.105 -8.263,-9.169 -1.369,-3.04 -2.693,-6.697 -3.854,-10.826 -0.579,-2.067 -1.127,-4.249 -1.627,-6.517 -0.232,-1.137 -0.474,-2.295 -0.715,-3.473 -0.184,-1.028 -0.375,-2.073 -0.566,-3.132 -3.557,-22.215 -7.003,-44.491 -8.95,-67.326 -0.031,-0.371 -0.048,-0.746 -0.048,-1.11 -0.041,-1.045 -0.082,-2.07 -0.123,-3.071 -0.126,-2.349 0.024,-4.702 0.164,-6.912 0.354,-4.439 0.718,-8.358 1.675,-11.735 1.927,-6.769 4.416,-10.606 6.986,-10.364 2.574,0.242 4.784,4.351 6.255,10.442 0.738,3.047 1.739,6.792 2.318,10.847 0.443,3.211 0.93,6.711 1.437,10.388 1.855,21.803 5.24,43.834 8.77,65.838 0.157,1.056 0.313,2.101 0.467,3.133 0.146,1.181 0.289,2.345 0.432,3.496 0.252,2.295 0.432,4.521 0.545,6.649 0.221,4.263 0.197,8.161 -0.106,11.471 -0.599,6.622 -2.243,10.939 -4.797,11.371"
     id="path6151" /><path
     style="fill:none;stroke:#000;stroke-width:1px;"
     d="m 242.374,659.497 c -2.578,0.187 -5.165,-3.623 -7.259,-9.955 -1.049,-3.167 -1.975,-6.956 -2.717,-11.185 -0.371,-2.114 -0.698,-4.34 -0.967,-6.652 -0.122,-1.161 -0.241,-2.339 -0.364,-3.527 -0.082,-1.025 -0.163,-2.057 -0.245,-3.105 -0.811,-14.065 -1.413,-28.143 -1.927,-42.272 0.037,-1.253 0.075,-2.469 0.109,-3.653 0.075,-2.343 0.207,-4.607 0.398,-6.759 0.422,-4.347 0.882,-8.092 1.856,-11.521 1.852,-6.741 4.289,-10.571 6.86,-10.323 2.574,0.249 4.828,4.372 6.384,10.486 0.718,3.007 1.63,6.919 2.151,11.076 0.283,2.1 0.518,4.303 0.691,6.591 0.086,1.144 0.178,2.332 0.269,3.548 0.504,13.887 1.1,27.836 1.904,41.768 0.051,1.042 0.098,2.07 0.146,3.084 0.027,1.192 0.054,2.363 0.082,3.521 0.02,2.305 -0.024,4.535 -0.126,6.663 -0.208,4.262 -0.651,8.116 -1.291,11.374 -1.287,6.517 -3.374,10.653 -5.954,10.841"
     id="path6153" /><path
     style="fill:none;stroke:#000;stroke-width:1px;"
     d="m 400.689,874.839 c -1.216,0.44 -2.659,-0.112 -4.263,-1.617 -0.8,-0.749 -1.654,-1.746 -2.502,-2.952 -0.773,-1.157 -1.556,-2.519 -2.332,-4.048 -1.614,-3.091 -2.966,-6.788 -4.256,-10.98 -0.657,-2.1 -1.171,-4.303 -1.699,-6.601 -0.242,-1.158 -0.487,-2.329 -0.739,-3.514 l -0.33,-1.808 c -0.099,-0.578 -0.232,-1.436 -0.194,-1.178 l -0.072,-0.483 c 0,0 0.014,-0.007 0.048,-0.014 -0.003,-0.061 0.034,0.133 0.004,-0.139 l -0.103,-0.899 -0.187,-1.767 c -0.218,-2.342 -0.408,-4.603 -0.453,-6.775 -0.112,-4.345 0.021,-8.267 0.504,-11.63 0.851,-6.677 2.976,-11.035 5.509,-11.134 2.638,-0.112 5.151,3.483 7.64,9.578 1.185,3.023 2.4,6.679 3.432,10.772 0.504,2.046 1.052,4.194 1.505,6.428 l 0.34,1.695 0.167,0.858 c 0.048,0.266 0.031,0.075 0.044,0.133 h 0.051 l 0.072,0.473 c 0.139,0.977 0.275,1.948 0.412,2.904 0.149,1.165 0.296,2.309 0.439,3.446 0.269,2.254 0.412,4.477 0.582,6.55 0.323,4.157 0.306,8.008 0.204,11.178 -0.075,1.603 -0.218,3.084 -0.429,4.422 -0.166,1.257 -0.384,2.367 -0.687,3.351 -0.603,1.95 -1.488,3.312 -2.707,3.751"
     id="path6155" /><path
     style="fill:none;stroke:#000;stroke-width:1px;"
     d="m 437.289,881.649 c -4.974,1.402 -9.574,-0.021 -10.255,-3.187 0,0 -0.119,-0.558 -0.327,-1.535 -0.194,-0.957 -0.551,-2.414 -0.776,-3.95 -0.521,-3.146 -1.216,-7.34 -1.91,-11.538 -0.654,-4.11 -1.308,-8.226 -1.798,-11.31 l -0.882,-4.988 c -0.49,-2.785 3.221,-5.87 8.287,-6.901 5.073,-1.032 9.608,0.558 10.139,3.558 0,0 0.375,2.121 0.937,5.307 l 1.811,11.409 c 0.67,4.062 1.345,8.12 1.848,11.164 0.232,1.57 0.518,2.656 0.685,3.486 0.177,0.818 0.276,1.284 0.276,1.284 0.548,2.567 -3.054,5.791 -8.035,7.201"
     id="path6157" /><path
     style="fill:none;stroke:#000;stroke-width:1px;"
     d="m 466.228,883.351 c -4.95,-1.556 -8.569,-4.228 -8.181,-7.187 0,0 0.313,-2.108 0.643,-5.468 0.344,-3.33 0.664,-7.892 0.875,-12.434 0.215,-4.548 0.293,-9.083 0.256,-12.403 -0.052,-3.316 -0.201,-5.331 -0.201,-5.331 -0.058,-0.685 0.132,-1.291 0.551,-1.934 0.412,-0.62 1.005,-0.974 1.788,-1.546 l 0.606,-0.405 c 0.214,-0.051 0.439,-0.112 0.674,-0.191 0.463,-0.167 0.953,-0.395 1.46,-0.66 1.018,-0.525 2.077,-1.229 3.231,-1.808 1.154,-0.579 2.322,-0.964 3.531,-0.919 0.603,0.02 1.212,0.146 1.811,0.395 0.3,0.119 0.599,0.272 0.889,0.452 0.255,0.099 0.504,0.218 0.742,0.358 0.946,0.494 1.832,1.403 2.39,2.206 0.555,0.787 0.93,1.743 1.001,2.7 0,0 0.197,2.686 0.252,6.445 0.041,3.745 -0.044,8.638 -0.272,13.506 -0.229,4.872 -0.569,9.72 -0.95,13.411 -0.358,3.684 -0.736,6.237 -0.736,6.237 -0.453,3.599 -5.406,6.125 -10.36,4.576"
     id="path6159" /><path
     style="fill:none;stroke:#000;stroke-width:1px;"
     d="m 460.27,802.491 c -2.533,-0.517 -4.753,-1.569 -6.326,-2.645 -1.576,-1.114 -2.441,-2.115 -2.39,-3.64 0,0 0.027,-0.51 0.078,-1.396 0.055,-0.885 0.147,-2.134 0.16,-3.755 0.099,-3.166 0.109,-7.49 0.058,-11.831 -0.092,-8.723 -0.575,-17.408 -0.575,-17.408 -0.167,-2.993 3.837,-5.713 8.995,-6.138 5.155,-0.426 9.523,1.896 9.707,5.134 -0.004,0 0.503,9.076 0.595,18.153 0.055,4.556 0.045,9.128 -0.064,12.635 -0.014,1.709 -0.116,3.238 -0.181,4.296 -0.061,1.056 -0.099,1.655 -0.099,1.655 -0.044,1.604 -1.365,3.384 -3.196,4.303 -1.839,0.95 -4.226,1.148 -6.762,0.637"
     id="path6161" /><path
     style="fill:none;stroke:#000;stroke-width:1px;"
     d="m 501.125,884.202 c -4.409,-2.754 -7.462,-5.832 -6.567,-8.573 0,0 0.688,-1.913 1.546,-5.086 0.864,-3.146 1.886,-7.473 2.655,-11.821 0.776,-4.338 1.325,-8.685 1.474,-11.77 0.181,-3.112 0.058,-4.909 0.058,-4.909 0.004,-0.691 0.188,-1.209 0.6,-1.76 0.411,-0.549 1.069,-1.151 1.794,-1.59 1.511,-0.964 3.639,-2.227 6.101,-3.007 2.465,-0.779 4.892,-0.739 6.887,0.412 1.029,0.606 1.771,1.297 2.353,2.169 0.582,0.878 0.964,1.92 0.97,2.891 0,-0.007 0.171,2.927 -0.068,6.884 -0.204,3.99 -0.851,9.015 -1.733,13.969 -0.882,4.95 -2.022,9.815 -3.033,13.492 -0.994,3.671 -1.893,6.207 -1.893,6.207 -1.131,3.568 -6.724,5.247 -11.144,2.492"
     id="path6163" /><path
     style="fill:none;stroke:#000;stroke-width:1px;"
     d="m 496.87,801.64 c -5.049,-1.103 -8.856,-4.082 -8.485,-6.656 0,0 0.269,-1.856 0.678,-4.641 0.524,-2.713 0.705,-6.69 1.004,-10.588 0.33,-3.888 0.548,-7.82 0.599,-10.793 0.103,-2.965 0.171,-4.94 0.171,-4.94 0.068,-2.727 4.259,-4.913 9.437,-4.94 5.169,-0.027 9.356,2.387 9.285,5.345 0,0 -0.072,2.084 -0.177,5.203 -0.058,3.111 -0.29,7.279 -0.637,11.477 -0.327,4.187 -0.514,8.324 -1.106,11.609 -0.474,3.231 -0.79,5.387 -0.79,5.387 -0.453,3.05 -4.923,4.64 -9.979,3.537"
     id="path6165" /><path
     style="fill:none;stroke:#000;stroke-width:1px;"
     d="m 541.981,875.691 c -4.882,-1.709 -8.028,-5.308 -7.031,-8.032 0,0 0.688,-1.849 1.723,-4.63 0.456,-1.311 0.984,-2.833 1.556,-4.467 0.385,-1.542 1.039,-3.228 1.287,-4.828 0.361,-1.61 0.674,-3.231 0.78,-4.794 0.228,-1.532 0.296,-3.019 0.286,-4.337 0.017,-1.297 0.085,-2.359 0.051,-3.139 -0.045,-0.79 -0.072,-1.243 -0.072,-1.243 -0.139,-2.478 3.933,-4.892 9.08,-5.386 5.155,-0.497 9.472,1.617 9.636,4.729 0,0 0.027,0.545 0.078,1.502 0.037,0.963 -0.027,2.4 -0.055,4.089 0,1.688 -0.095,3.677 -0.395,5.866 -0.177,2.182 -0.595,4.473 -1.106,6.768 -0.415,2.336 -1.188,4.416 -1.74,6.489 -0.66,1.904 -1.277,3.681 -1.804,5.196 -1.056,2.832 -1.757,4.722 -1.757,4.722 -0.926,2.533 -5.628,3.197 -10.517,1.495"
     id="path6167" /><path
     style="fill:none;stroke:#000;stroke-width:1px;"
     d="m 610.08,772.701 c 2.584,-0.007 4.886,3.99 6.517,10.54 0.885,3.225 1.29,7.286 1.542,11.777 0.048,1.13 0.119,2.267 0.109,3.462 -0.092,1.24 -0.187,2.496 -0.283,3.773 -0.132,1.283 -0.268,2.584 -0.408,3.902 l -0.252,1.995 c -0.126,0.647 -0.392,1.576 -0.334,1.382 l -1.814,6.67 c -0.566,2.253 -1.621,4.204 -2.421,6.312 -1.631,4.303 -3.735,7.841 -5.686,11.63 -0.064,0.126 -0.146,0.238 -0.235,0.344 -0.051,0.075 0.014,-0.065 -0.132,0.194 l -0.467,0.81 c -0.31,0.552 -0.63,1.059 -0.957,1.542 -1.293,1.979 -2.594,3.844 -3.888,5.594 -2.587,3.524 -5.134,6.459 -7.51,8.777 -4.746,4.661 -8.794,6.878 -11.018,5.56 -2.226,-1.324 -2.202,-5.931 -0.364,-12.328 0.93,-3.2 2.302,-6.843 3.977,-10.687 0.851,-1.92 1.797,-3.909 2.836,-5.938 0.265,-0.51 0.524,-1.018 0.749,-1.515 l 0.357,-0.752 c 0.113,-0.239 0.041,-0.119 0.075,-0.201 0.027,-0.119 0.068,-0.232 0.126,-0.344 1.706,-3.32 3.698,-6.69 4.855,-9.901 0.603,-1.63 1.522,-3.227 1.893,-4.868 l 1.335,-4.913 c -0.045,0.133 0.173,-0.535 0.282,-1.018 l 0.249,-1.583 c 0.19,-1.046 0.381,-2.074 0.568,-3.085 0.225,-1.011 0.443,-2.002 0.657,-2.979 0.167,-1.038 0.331,-2.056 0.487,-3.061 0.668,-4 1.621,-7.585 2.431,-10.806 1.757,-6.316 4.137,-10.285 6.724,-10.285"
     id="path6169" /><path
     style="fill:none;stroke:#000;stroke-width:1px;"
     d="m 637.311,826.324 c -2.39,-1.025 -3.221,-5.567 -2.874,-11.797 0.048,-3.266 0.402,-7.028 1.073,-11.106 0.299,-2.067 0.616,-4.256 1.041,-6.483 0.225,-1.117 0.453,-2.247 0.685,-3.391 0.221,-0.97 0.442,-1.954 0.67,-2.945 2.564,-11.245 4.913,-22.603 6.919,-33.988 0.03,-0.184 0.078,-0.371 0.143,-0.545 0.023,-0.099 0.01,0.02 0.068,-0.245 l 0.18,-0.858 0.378,-1.682 c 0.511,-2.227 1.073,-4.368 1.655,-6.397 1.076,-4.048 2.305,-7.667 3.609,-10.687 2.417,-5.952 5.141,-9.656 7.732,-9.462 2.567,0.187 4.507,4.402 5.392,11.218 0.365,3.344 0.474,7.3 0.303,11.671 -0.126,2.166 -0.337,4.426 -0.612,6.762 l -0.222,1.764 -0.122,0.888 c -0.038,0.279 -0.007,0.167 -0.017,0.266 0,0.194 -0.017,0.388 -0.051,0.579 -2.064,11.712 -4.464,23.335 -7.116,34.958 -0.269,1.032 -0.535,2.043 -0.793,3.044 -0.337,1.171 -0.668,2.329 -0.994,3.459 -0.688,2.268 -1.379,4.43 -2.162,6.476 -1.658,4.102 -3.398,7.715 -5.111,10.632 -3.816,5.948 -7.415,8.88 -9.774,7.869"
     id="path6171" /><path
     style="fill:none;stroke:#000;stroke-width:1px;"
     d="m 707.112,609.275 c 2.574,0.228 4.525,4.409 5.597,10.99 0.535,3.289 0.848,7.181 0.913,11.477 0.031,2.145 0,4.396 -0.095,6.721 -0.065,1.158 -0.133,2.342 -0.198,3.537 -0.102,1.066 -0.201,2.135 -0.303,3.228 l -2.274,20.438 c -0.763,6.816 -1.771,13.659 -2.646,20.482 -0.844,6.823 -2.151,13.687 -3.207,20.527 -0.548,3.418 -1.338,6.85 -1.998,10.275 -0.695,3.432 -1.342,6.864 -2.247,10.268 -0.109,0.45 -0.235,0.889 -0.375,1.314 -0.303,1.025 -0.602,2.036 -0.895,3.027 -0.708,2.281 -1.379,4.487 -2.261,6.51 -1.695,4.058 -3.401,7.66 -5.199,10.506 -3.622,5.686 -7.075,8.737 -9.526,7.92 -2.455,-0.824 -3.452,-5.332 -3.112,-11.883 0.164,-3.285 0.487,-7.061 1.216,-11.163 0.35,-2.05 0.721,-4.191 1.103,-6.411 0.187,-0.95 0.378,-1.917 0.572,-2.901 0.071,-0.419 0.156,-0.838 0.262,-1.256 0.851,-3.177 1.464,-6.449 2.118,-9.7 0.629,-3.265 1.378,-6.479 1.906,-9.782 1.018,-6.632 2.274,-13.169 3.102,-19.869 0.854,-6.69 1.842,-13.339 2.594,-20.07 l 2.244,-20.19 c 0.133,-1.069 0.265,-2.128 0.395,-3.169 0.16,-1.178 0.32,-2.343 0.476,-3.487 0.344,-2.284 0.739,-4.48 1.178,-6.567 0.872,-4.171 1.921,-7.909 3.071,-11.024 2.298,-6.228 5.012,-9.976 7.589,-9.748"
     id="path6173" /><path
     style="fill:none;stroke:#000;stroke-width:1px;"
     d="m 488.358,705.459 c -5.158,0.085 -9.315,-2.58 -9.148,-5.706 0,0 0.153,-2.094 0.381,-5.24 0.245,-3.05 0.593,-7.006 0.756,-10.799 0.194,-3.803 0.174,-7.466 -0.007,-10.125 -0.105,-1.325 -0.194,-2.428 -0.252,-3.201 -0.034,-0.783 -0.15,-1.181 -0.15,-1.181 -0.401,-2.281 3.391,-5.107 8.42,-6.306 5.036,-1.205 9.594,0.511 10.142,3.837 0,0 0.14,0.593 0.198,1.584 0.082,0.99 0.194,2.413 0.33,4.123 0.232,3.391 0.242,7.851 0.027,12.134 -0.194,4.317 -0.558,8.433 -0.796,11.432 -0.215,2.925 -0.358,4.866 -0.358,4.866 -0.133,2.546 -4.351,4.497 -9.543,4.582"
     id="path6175" /><path
     style="fill:none;stroke:#000;stroke-width:1px;"
     d="m 518.149,702.906 c -5.172,-0.007 -9.37,-2.009 -9.387,-4.474 0,0 -0.058,-7.044 -0.116,-14.085 -0.258,-6.904 -0.517,-13.799 -0.517,-13.799 -0.092,-2.407 4.014,-4.688 9.168,-5.093 5.162,-0.412 9.421,1.345 9.52,3.922 0,0 0.276,7.31 0.551,14.623 0.062,7.177 0.119,14.357 0.119,14.357 0.018,2.513 -4.16,4.549 -9.338,4.549"
     id="path6177" /><path
     style="fill:none;stroke:#000;stroke-width:1px;"
     d="m 541.13,699.501 c -5.005,-1.304 -8.832,-3.306 -8.556,-4.794 0,0 0.838,-4.317 1.164,-8.637 0.154,-2.148 0.228,-4.256 0.164,-5.788 0.041,-1.58 -0.119,-2.519 -0.119,-2.519 -0.123,-1.304 3.942,-3.007 9.049,-3.797 5.114,-0.789 9.434,0.266 9.622,2.367 0,0 0.201,1.491 0.17,3.571 0.075,2.135 -0.017,4.903 -0.218,7.62 -0.409,5.427 -1.44,10.7 -1.44,10.7 -0.347,1.876 -4.825,2.581 -9.836,1.277"
     id="path6179" /><path
     style="fill:none;stroke:#000;stroke-width:1px;"
     d="m 456.865,703.757 c -5.171,0.034 -9.281,-2.016 -9.175,-4.569 0,0 0.078,-1.801 0.194,-4.501 0.102,-2.707 0.65,-6.159 1.021,-9.676 0.45,-3.272 0.899,-6.544 1.236,-8.995 0.232,-2.315 0.388,-3.857 0.388,-3.857 0.218,-2.142 4.579,-3.62 9.741,-3.3 5.168,0.314 9.152,2.602 8.896,5.114 0,0 -0.18,1.764 -0.449,4.416 -0.344,2.492 -0.8,5.819 -1.26,9.141 -0.31,3.102 -0.827,6.245 -0.895,8.532 -0.096,2.288 -0.16,3.817 -0.16,3.817 -0.089,2.104 -4.358,3.844 -9.537,3.878"
     id="path6181" /><path
     style="fill:none;stroke:#000;stroke-width:1px;"
     d="m 422.819,694.394 c -5.087,-0.929 -9.026,-2.727 -8.801,-4.017 l 2.567,-14.763 c 0.225,-1.29 4.538,-1.648 9.639,-0.796 5.107,0.844 9.053,2.601 8.824,3.908 l -2.601,14.97 c -0.228,1.311 -4.535,1.621 -9.628,0.698"
     id="path6183" /><path
     style="fill:none;stroke:#000;stroke-width:1px;"
     d="m 456.285,596.038 -41.146,-1.529 c -9.523,-0.385 -19.135,-0.773 -28.817,-1.165 -4.845,-0.197 -9.707,-0.401 -14.586,-0.602 l -7.337,-0.307 -8.443,-0.823 c -11.218,-1.509 -22.266,-4.723 -32.637,-9.649 -10.384,-4.903 -19.876,-11.733 -28.204,-19.778 -8.311,-8.086 -15.28,-17.438 -20.625,-27.587 -5.247,-10.211 -8.753,-21.201 -10.558,-32.344 -0.344,-2.802 -0.957,-5.577 -1.038,-8.389 l -0.382,-8.403 c 0.256,-5.584 0.303,-11.177 1.362,-16.652 0.661,-5.533 2.261,-10.864 3.711,-16.175 l 2.86,-7.743 c 0.896,-2.601 2.292,-4.977 3.425,-7.459 9.686,-19.624 25.436,-35.459 43.692,-45.663 9.22,-4.926 18.919,-8.852 28.96,-10.905 2.465,-0.715 5.025,-0.882 7.527,-1.307 2.53,-0.331 4.971,-0.817 7.62,-0.838 2.598,-0.102 5.188,-0.204 7.776,-0.303 2.485,-0.024 4.474,0.242 6.724,0.347 69.982,4.62 132.971,9.169 185.821,13.398 26.427,2.11 50.317,4.143 71.283,6.063 10.476,1.001 20.227,1.934 29.205,2.792 4.484,0.463 8.774,0.906 12.866,1.328 2.043,0.218 4.038,0.432 5.982,0.643 1.992,0.259 4.079,0.691 6.013,1.029 15.474,3.213 26.181,9.236 32.66,13.999 3.231,2.445 5.533,4.46 6.881,6.074 1.382,1.553 1.93,2.526 1.638,2.911 -0.293,0.385 -1.42,0.181 -3.296,-0.568 -1.822,-0.794 -4.508,-1.968 -8.032,-3.504 -6.955,-2.955 -17.53,-6.829 -31.397,-8.093 -1.74,-0.092 -3.412,-0.272 -5.311,-0.32 -1.958,-0.01 -3.963,-0.017 -6.02,-0.027 -4.109,-0.037 -8.423,-0.075 -12.927,-0.116 -9.009,-0.146 -18.79,-0.306 -29.304,-0.48 -21.017,-0.425 -44.931,-1.065 -71.351,-1.903 -52.836,-1.682 -115.696,-4.164 -185.453,-7.354 -2.121,-0.061 -4.511,-0.293 -6.421,-0.211 l -5.448,0.364 c -1.794,0 -3.714,0.463 -5.593,0.739 -1.876,0.371 -3.814,0.463 -5.649,1.076 -7.527,1.648 -14.715,4.78 -21.575,8.532 -13.543,7.865 -25.194,19.852 -32.211,34.513 -0.804,1.862 -1.89,3.605 -2.499,5.556 l -2.08,5.754 c -0.981,3.963 -2.213,7.892 -2.625,12.008 -0.807,4.052 -0.722,8.232 -0.95,12.379 l 0.33,6.244 c 0.034,2.094 0.572,4.13 0.814,6.207 1.382,8.232 3.973,16.322 7.858,23.86 3.987,7.48 9.151,14.388 15.307,20.373 6.166,5.951 13.159,11.051 20.829,14.67 7.644,3.637 15.805,6.037 24.054,7.201 l 6.203,0.664 7.317,0.347 c 4.865,0.232 9.717,0.467 14.545,0.698 9.658,0.474 19.239,0.943 28.735,1.41 37.985,1.978 74.626,3.891 109.53,5.709 34.904,2.016 68.072,3.929 99.115,5.72 15.522,0.977 30.513,1.917 44.921,2.819 3.834,0.392 6.547,0.028 9.679,0.021 1.515,0.041 3.065,-0.198 4.6,-0.409 1.539,-0.191 3.071,-0.385 4.593,-0.579 3.01,-0.575 5.961,-1.31 8.893,-2.005 2.815,-1.035 5.72,-1.794 8.423,-2.972 10.908,-4.508 20.349,-11.144 27.887,-18.818 7.562,-7.68 13.214,-16.376 17.136,-25.143 4.031,-8.756 5.995,-17.673 6.884,-25.967 1.079,-8.321 0.514,-16.077 -0.436,-22.957 -2.107,-13.813 -6.659,-24.078 -10.027,-30.843 -1.593,-3.479 -3.118,-5.972 -3.952,-7.824 -0.845,-1.842 -1.114,-2.955 -0.746,-3.271 0.368,-0.317 1.362,0.177 2.986,1.474 1.607,1.31 3.956,3.34 6.445,6.516 5.141,6.163 11.855,16.485 15.991,31.697 1.955,7.576 3.463,16.336 3.105,25.995 -0.17,9.628 -1.654,20.267 -5.662,30.982 -3.891,10.724 -9.978,21.609 -18.589,31.455 -8.586,9.836 -19.713,18.617 -33.001,24.871 -3.292,1.614 -6.833,2.781 -10.326,4.191 -3.602,1.069 -7.269,2.155 -11.021,3.027 -1.896,0.327 -3.81,0.66 -5.73,0.994 -1.92,0.334 -3.844,0.694 -5.88,0.766 -3.932,0.238 -8.358,0.711 -11.742,0.466 -14.449,-0.384 -29.481,-0.786 -45.05,-1.202 -25.522,-0.806 -52.479,-1.656 -80.653,-2.548 0.646,3.752 1.008,8.301 0.998,13.26 -0.024,1.242 -0.051,2.523 -0.079,3.816 l -0.391,11.311 -0.259,7.52 -0.194,5.652 -0.099,2.833 -0.047,1.409 c -0.068,0.174 0.122,0.627 -0.16,0.559 l -0.708,-0.031 -44.731,-2.036 -28.547,-1.297 -8.583,-0.385 -4.76,-0.221 -1.188,-0.051 c -0.089,-0.014 -0.222,0.013 -0.273,-0.041 l 0.011,-0.293 0.02,-0.599 0.082,-2.38 1.045,-30.376 z"
     id="path6259" /><path
     style="fill:none;stroke:#000;stroke-width:1px;"
     d="m 470.319,596.56 -1.088,31.549 60.875,2.768 0.521,-15.099 c 0.061,-1.294 0.122,-2.571 0.183,-3.813 0.331,-4.935 1.002,-9.436 1.901,-13.129 l -7.722,-0.245 c -17.792,-0.661 -36.032,-1.339 -54.67,-2.031 z"
     id="path6185" /><path
     style="fill:none;stroke:#000;stroke-width:1px;"
     d="m 235.568,464.578 c -2.52,1.985 -5.376,2.966 -7.865,3.528 -2.455,0.49 -4.78,0.415 -6.69,-0.681 -1.798,-1.052 -3.762,-1.846 -5.607,-2.346 -2.135,-0.599 -4.147,-0.773 -5.587,-0.586 -1.464,0.211 -2.196,0.623 -3,1.352 -0.242,0.088 -0.398,0.432 -0.609,0.667 -0.102,0.123 -0.215,0.242 -0.334,0.354 -0.133,0.15 -0.357,0.542 -0.531,0.797 -0.735,1.151 -1.583,2.305 -2.043,3.418 -1.277,2.118 -1.957,4.705 -2.843,7.174 -0.599,2.689 -1.086,5.512 -1.556,8.341 l -0.503,9.067 c 0.02,3.101 0.296,6.302 0.418,9.451 l 0.242,4.746 0.681,4.835 c 0.899,6.448 1.641,12.893 3.228,19.389 1.433,6.469 2.594,12.999 4.337,19.406 1.685,6.387 3.524,12.7 5.686,18.624 1.093,2.938 2.243,5.811 3.496,8.412 1.236,2.53 2.676,4.947 3.769,6.197 0.266,0.272 0.504,0.545 0.593,0.599 0.023,0.02 0.068,0.092 0.047,0.044 0.051,-0.078 -0.095,0.102 -0.252,0.317 l -0.405,0.589 c -0.541,0.946 -0.892,1.42 -1.178,2.073 -0.572,1.304 -0.657,1.927 -0.65,2.186 -0.007,0.075 0.02,-0.351 -0.419,-1.277 -0.177,-0.367 -0.473,-0.98 -0.783,-1.358 -0.368,-0.633 -0.763,-1.093 -1.243,-1.658 l -0.32,-0.388 0.055,0.044 c 0.037,0.031 0.078,0.085 0.146,0.078 0.126,0.014 0.269,0.079 0.453,0.079 0.732,0.047 1.842,-0.099 3.078,-0.177 2.495,-0.157 5.57,-0.188 8.528,0.973 2.932,1.144 5.169,3.572 5.611,7.031 0.208,1.729 0.004,3.69 -1.048,5.839 -1.08,2.1 -2.891,4.576 -6.742,6.39 -2.144,1.005 -4.841,1.658 -7.568,1.624 -2.686,-0.058 -5.274,-0.749 -7.208,-1.675 -3.959,-1.896 -6.237,-4.239 -8.055,-6.278 -3.364,-3.973 -5.27,-7.613 -7.078,-11.211 -1.726,-3.575 -3.115,-7.075 -4.413,-10.562 -2.533,-6.962 -4.518,-13.829 -6.332,-20.7 -1.852,-6.829 -3.122,-13.809 -4.644,-20.727 -1.658,-6.84 -2.53,-14.03 -3.51,-21.16 -1.56,-14.354 -2.894,-29.15 1.389,-45.275 1.317,-4.02 2.54,-8.051 4.729,-11.895 0.95,-2.026 2.107,-3.667 3.227,-5.397 0.307,-0.449 0.508,-0.813 0.906,-1.334 l 1.307,-1.624 c 0.903,-1.066 1.74,-2.142 2.898,-3.064 4.208,-3.95 10.033,-6.479 15.382,-7.113 5.379,-0.687 10.302,-0.01 14.756,1.209 3.874,1.069 7.445,2.567 10.789,4.484 3.602,2.043 5.944,5.393 6.462,8.794 0.582,3.371 -0.732,6.448 -3.197,8.375"
     id="path6187" /><path
     style="fill:none;stroke:#000;stroke-width:1px;"
     d="m 233.014,456.918 c -5.198,-0.528 -8.402,-13.135 -10.557,-32.555 -1.229,-9.618 -1.914,-21.194 -3.415,-32.994 -0.327,-2.969 -0.909,-5.71 -1.287,-8.655 -0.143,-1.58 -0.606,-2.557 -0.868,-3.851 -0.327,-1.416 -0.651,-2.849 -0.981,-4.296 -0.677,-3.017 -1.249,-6.197 -1.27,-8.832 -0.218,-2.894 -0.044,-5.376 0.14,-7.909 0.143,-2.604 0.613,-4.756 0.953,-7.18 0.443,-2.257 0.95,-4.45 1.481,-6.649 2.257,-8.563 5.189,-15.982 8.158,-22.815 2.962,-6.785 6.084,-13.036 8.641,-18.327 l 0.902,-1.883 c 0.282,-0.599 0.572,-1.246 0.674,-1.31 0.17,-0.113 0.364,-0.252 0.521,-0.433 0.32,-0.357 0.528,-0.848 0.613,-1.43 -0.16,-1.035 -1.1,-3.374 -2.067,-5.362 -0.994,-2.087 -2.138,-4.263 -3.258,-6.428 -4.617,-8.631 -8.359,-17.295 -9.169,-23.809 -0.899,-6.632 0.729,-10.615 3.129,-11.262 2.567,-0.718 5.601,1.311 9.768,4.47 4.239,3.296 9.792,7.644 17.306,14.507 1.865,1.75 3.843,3.677 5.927,5.993 2.121,2.41 4.191,4.803 6.585,8.957 2.529,4.634 4.402,10.068 4.245,15.808 -0.105,1.437 -0.214,2.883 -0.323,4.337 -0.266,1.444 -0.579,2.901 -0.937,4.358 -0.299,1.059 -0.599,2.128 -0.905,3.204 l -0.8,2.662 c -2.152,6.844 -4.501,13.118 -6.758,19.502 -2.248,6.329 -4.433,12.689 -6.003,18.664 -1.648,5.86 -1.975,11.297 -1.838,12.764 0,0.089 -0.034,0.051 -0.011,0.249 l 0.143,0.834 0.273,1.665 0.517,3.309 c 0.276,2.135 0.753,4.504 0.739,6.339 0.119,3.848 0.361,7.739 0.235,11.273 -0.317,14.228 -2.458,26.097 -4.627,36.133 -4.668,19.884 -10.793,31.469 -15.876,30.952"
     id="path6189" /><path
     style="fill:none;stroke:#000;stroke-width:1px;"
     d="m 336.46,419.454 c 0.705,1.127 -1.559,4.113 -5.652,8.613 -3.789,4.855 -9.322,11.546 -13.727,20.987 -4.423,9.366 -7.324,21.51 -6.37,34.805 0.742,13.251 6.033,27.38 15.78,38.99 9.744,11.725 23.073,18.841 35.868,22.048 12.958,2.86 25.456,2.179 35.384,-0.708 9.966,-2.809 17.759,-6.843 22.924,-10.091 0.684,-0.375 1.331,-0.722 1.937,-1.052 0.575,-0.371 1.117,-0.719 1.62,-1.042 1.029,-0.633 1.944,-1.141 2.734,-1.518 1.584,-0.743 2.67,-0.957 3.156,-0.528 0.484,0.429 0.344,1.474 -0.412,3.122 -0.377,0.824 -0.909,1.794 -1.593,2.911 -0.354,0.558 -0.735,1.151 -1.14,1.784 -0.477,0.575 -0.988,1.185 -1.522,1.828 -1.1,1.277 -2.36,2.68 -3.783,4.201 -1.535,1.366 -3.255,2.823 -5.134,4.379 -3.854,2.952 -8.607,5.931 -14.293,8.46 -11.296,5.189 -26.631,7.804 -43.279,5.168 -16.479,-2.938 -34.159,-11.722 -46.746,-26.845 -12.648,-14.967 -18.882,-33.743 -18.746,-50.514 -0.136,-16.843 5.165,-31.589 12.07,-41.881 6.918,-10.415 14.939,-16.584 20.622,-20.114 6.022,-3.173 9.652,-4.065 10.302,-3.003"
     id="path6191" /><path
     style="fill:none;stroke:#000;stroke-width:1px;"
     d="m 397.78,539.218 c -0.436,-1.212 0.956,-2.986 3.333,-4.93 2.318,-2.097 5.679,-4.334 9.213,-7.072 l 0.418,-0.292 c 0,-0.004 0.569,-0.389 1.543,-1.226 0.997,-0.804 2.465,-1.988 4.153,-3.691 3.374,-3.35 7.988,-8.59 11.484,-16.042 3.51,-7.368 6.067,-16.914 5.39,-27.207 -0.375,-10.258 -4.004,-21.033 -10.371,-29.937 -6.319,-8.964 -15.378,-15.835 -24.874,-19.672 -9.543,-3.762 -19.345,-4.79 -27.503,-3.779 -8.198,0.926 -14.588,3.596 -18.933,5.55 -2.08,1.188 -3.711,2.121 -4.824,2.758 -1.144,0.592 -1.614,1.123 -1.638,1.082 -0.946,0.681 -1.882,1.349 -2.791,2.002 -6.554,4.685 -11.869,8.713 -13.902,7.225 -1.848,-1.28 0.838,-8.488 8.233,-14.586 1.045,-0.779 2.118,-1.579 3.207,-2.39 0.024,0.038 0.589,-0.555 1.907,-1.259 1.3,-0.743 3.203,-1.829 5.627,-3.211 5.056,-2.308 12.533,-5.403 22.086,-6.476 9.482,-1.164 20.901,-0.003 32.045,4.406 11.085,4.474 21.619,12.478 28.983,22.917 7.426,10.367 11.651,22.967 12.097,34.904 0.769,11.957 -2.186,23.121 -6.292,31.714 -4.089,8.685 -9.444,14.79 -13.38,18.691 -1.968,1.978 -3.674,3.357 -4.838,4.297 -1.137,0.97 -1.794,1.42 -1.794,1.423 l -0.491,0.341 c -4.163,3.149 -8.685,4.793 -12.004,5.491 -3.412,0.552 -5.662,0.16 -6.084,-1.031"
     id="path6193" /><path
     style="fill:none;stroke:#000;stroke-width:1px;"
     d="m 375.433,438.949 c 19.518,0.187 37.889,15.162 41.614,34.585 2.644,13.789 -2.032,28.752 -12.098,38.582 -11.762,11.485 -30.43,15.313 -45.91,8.983 -13.652,-5.583 -23.944,-18.682 -26.083,-33.274 -2.64,-18.02 7.658,-37.169 24.181,-44.888 5.712,-2.668 12.081,-4.007 18.296,-3.988 z"
     id="path6247" /><path
     style="fill:none;stroke:#000;stroke-width:1px;"
     d="m 374.927,445.949 c -16.295,0.156 -31.552,12.61 -34.742,28.686 -4.412,22.242 16.471,46.663 41.502,42.023 14.491,-2.687 26.607,-15.251 28.746,-29.848 2.895,-19.758 -13.153,-40.381 -34.584,-40.855 -0.307,-0.005 -0.615,-0.007 -0.922,-0.006 z"
     id="path6195" /><path
     style="fill:none;stroke:#000;stroke-width:1px;"
     d="m 660.009,426.915 c 0.13,0.633 -0.65,1.481 -2.192,2.492 -0.77,0.507 -1.73,1.055 -2.864,1.641 -1.11,0.64 -2.383,1.375 -3.806,2.196 -5.611,3.272 -13.615,8.059 -21.17,16.189 -7.609,7.96 -14.654,19.345 -17.742,33.161 -3.145,13.741 -1.818,29.991 5.417,44.403 7.164,14.494 19.335,25.235 32.102,31.173 6.445,2.921 13.02,4.62 19.322,5.597 6.332,0.902 12.352,0.77 17.86,0.32 10.991,-1.27 19.676,-4.606 25.658,-7.163 1.518,-0.644 2.87,-1.212 4.051,-1.709 1.154,-0.552 2.172,-0.984 3.041,-1.294 1.739,-0.613 2.887,-0.722 3.312,-0.238 0.426,0.486 0.113,1.545 -0.929,3.166 -0.521,0.807 -1.226,1.757 -2.108,2.836 -0.905,1.049 -2.076,2.114 -3.394,3.343 -5.308,4.78 -14.354,10.718 -27.227,14.078 -6.438,1.485 -13.717,2.489 -21.599,2.132 -7.851,-0.436 -16.294,-1.937 -24.677,-5.162 -16.641,-6.503 -32.902,-19.944 -42.176,-38.738 -4.658,-9.332 -7.313,-19.355 -8.117,-29.116 -0.81,-9.771 0.293,-19.284 2.748,-27.897 4.96,-17.316 15.201,-30.54 25.541,-38.68 10.337,-8.345 20.629,-11.859 27.608,-13.255 1.781,-0.306 3.344,-0.582 4.723,-0.684 1.392,-0.051 2.574,-0.037 3.534,0.037 1.92,0.147 2.955,0.538 3.084,1.172"
     id="path6197" /><path
     style="fill:none;stroke:#000;stroke-width:1px;"
     d="m 693.776,557.425 c -0.354,-1.229 1.134,-2.945 3.64,-4.706 2.444,-1.95 5.924,-3.993 9.621,-6.506 l 0.358,-0.225 c 0,0 0.477,-0.306 1.372,-0.878 0.844,-0.647 2.087,-1.59 3.663,-2.788 3.03,-2.547 7.177,-6.503 10.994,-12.148 3.871,-5.587 7.129,-12.985 8.699,-21.344 1.542,-8.355 1.079,-17.659 -1.423,-26.355 -2.53,-8.719 -7.429,-16.631 -13.244,-22.807 -5.822,-6.228 -12.679,-10.555 -18.93,-13.187 -6.295,-2.631 -11.933,-3.557 -15.852,-4.102 -3.96,-0.225 -6.224,-0.354 -6.224,-0.354 -0.97,0.024 -1.92,0.051 -2.849,0.075 -8.086,-0.024 -14.715,0.422 -15.532,-1.951 -0.807,-2.114 5.491,-6.673 15.068,-7.33 1.08,-0.051 2.186,-0.102 3.31,-0.157 0,-0.003 2.642,0.068 7.245,0.412 4.565,0.613 11.147,1.709 18.484,4.787 7.296,3.071 15.28,8.113 22.065,15.355 6.779,7.18 12.475,16.417 15.43,26.59 2.938,10.159 3.459,20.955 1.665,30.699 -1.822,9.755 -5.645,18.385 -10.15,24.899 -4.439,6.581 -9.267,11.18 -12.798,14.146 -1.842,1.399 -3.288,2.495 -4.272,3.241 -1.042,0.671 -1.597,1.028 -1.597,1.028 l -0.419,0.269 c -4.351,2.877 -8.954,4.259 -12.311,4.753 -3.452,0.31 -5.662,-0.194 -6.013,-1.416"
     id="path6199" /><path
     style="fill:none;stroke:#000;stroke-width:1px;"
     d="m 675.04,455.972 c 19.533,0.187 37.896,15.197 41.614,34.586 2.645,13.788 -2.031,28.751 -12.098,38.581 -11.751,11.475 -30.402,15.324 -45.91,8.983 -17.799,-7.279 -29.21,-27.661 -25.914,-46.778 3.32,-19.251 21.293,-34.922 41.208,-35.365 0.367,-0.006 0.734,-0.008 1.1,-0.007 z"
     id="path6239" /><path
     style="fill:none;stroke:#000;stroke-width:1px;"
     d="m 674.534,462.972 c -16.284,0.156 -31.548,12.581 -34.741,28.686 -4.386,22.115 15.901,46.603 41.283,42.063 14.629,-2.618 26.923,-15.317 28.996,-30.109 2.757,-19.678 -13.315,-40.161 -34.616,-40.634 -0.307,-0.005 -0.614,-0.007 -0.922,-0.006 z"
     id="path6201" /><path
     style="fill:none;stroke:#000;stroke-width:1px;"
     d="m 285.345,188.344 -0.001,0.002 0.583,0.177 v 0.02 l -0.003,0.079 -0.003,0.156 -0.004,0.314 -0.02,1.259 -0.109,2.561 c -0.102,1.715 -0.228,3.452 -0.392,5.198 -0.32,3.494 -0.728,7.014 -1.164,10.551 -0.858,7.089 -1.89,14.174 -2.588,21.521 -0.071,0.848 -0.139,1.675 -0.166,2.509 -0.086,2.315 -0.024,4.511 0.405,6.789 0.136,0.613 0.218,1.107 0.456,1.804 0.116,0.344 0.184,0.593 0.354,0.981 0.092,0.205 0.19,0.405 0.291,0.6 -0.366,1.931 -0.759,3.876 -1.197,5.842 l -0.449,1.828 c -0.208,0.807 -0.426,1.607 -0.678,2.383 -0.493,1.549 -1.089,3.037 -1.858,4.147 -0.784,1.11 -1.665,1.784 -2.721,2.254 -0.517,0.221 -1.277,0.381 -1.801,0.408 l -1.617,-0.548 c -2.084,-0.041 -4.508,-3.241 -6.819,-5.406 -1.223,-1.301 -2.442,-2.435 -3.565,-3.776 l -0.245,-0.283 c -1.631,-1.903 -3.081,-3.799 -4.307,-5.587 -1.236,-1.767 -2.009,-3.752 -2.642,-5.304 -1.205,-3.2 -1.335,-5.41 -0.225,-6.047 1.107,-0.636 3.211,0.344 5.621,2.312 1.26,0.964 2.377,2.271 3.909,3.633 1.508,1.375 3.06,2.958 4.586,4.715 l 0.228,0.262 c 1.018,1.223 2.254,2.373 3.313,3.511 l 0.003,0.006 0.143,-0.606 c 1.389,-6.22 2.407,-12.859 3.51,-19.433 1.096,-6.598 2.196,-13.234 3.572,-19.907 0.694,-3.337 1.447,-6.683 2.39,-10.061 0.855,-2.903 1.676,-5.775 3.209,-8.862 z"
     id="path6235" /><path
     style="fill:none;stroke:#000;stroke-width:1px;"
     d="m 294.415,202.086 c 0.234,-0.412 0.471,-0.826 0.71,-1.244 4.147,-7.749 10.282,-15.753 18.041,-23.533 15.539,-15.617 38.095,-29.623 65.243,-38.914 13.533,-4.481 28.037,-8.287 43.603,-10.378 15.525,-2.107 32.031,-2.414 48.676,-0.282 16.649,2.107 32.552,6.472 47.059,12.246 14.507,5.812 27.693,12.825 39.705,20.019 23.999,14.501 43.633,29.273 60.619,40.522 16.877,11.433 31.037,19.451 41.142,24.687 10.108,5.158 15.967,7.94 15.552,9.557 -0.341,1.386 -7.037,1.467 -18.644,-1.372 -11.538,-2.891 -27.754,-9.216 -46.228,-19.25 -18.579,-9.853 -39.337,-23.362 -62.72,-36.174 -11.708,-6.363 -24.135,-12.464 -37.359,-17.452 -13.224,-4.954 -27.285,-8.627 -41.942,-10.49 -29.341,-3.884 -58.028,0.79 -83.158,8.086 -24.925,7.388 -45.904,18.61 -60.84,30.935 -7.48,6.152 -13.66,12.457 -18.222,18.643 -0.599,0.76 -1.191,1.502 -1.77,2.234 -0.511,0.773 -1.015,1.532 -1.509,2.278 -0.997,1.498 -1.961,2.938 -2.88,4.32 -1.627,2.918 -3.115,5.58 -4.457,7.98 -1.106,2.516 -2.151,4.763 -3.118,6.718 -0.514,1.053 -0.907,2.045 -1.267,2.951 l -0.227,2.013 -0.262,2.31 c -0.24,0.03 -0.496,0.087 -0.765,0.17 -0.339,0.122 -0.716,0.258 -1.139,0.411 -0.382,0.578 -0.732,0.978 -1.049,1.19 0.037,0.1 0.068,0.199 0.09,0.292 0.184,0.252 0.29,0.535 0.225,0.899 0.004,-0.003 0.021,0.004 0.13,-0.122 0.289,-0.423 0.544,-0.501 1.109,-0.773 0.348,-0.215 0.709,-0.395 1.087,-0.542 0.129,-0.044 0.074,-0.006 0.115,-0.01 0.028,-0.013 0.048,-0.201 0.065,-0.286 0.031,-0.293 0.065,-0.596 0.095,-0.902 l 0.037,-0.327 c 0.518,-0.063 0.959,0.006 1.295,0.238 0.49,0.344 0.704,1.015 0.633,1.992 -0.021,0.49 -0.164,1.056 -0.419,1.699 -0.255,0.644 -0.582,1.365 -1.539,2.268 -0.279,0.231 -0.585,0.459 -0.916,0.674 -0.558,0.248 -1.297,0.425 -1.995,0.466 -0.776,0 -1.947,-0.419 -2.567,-0.899 -0.497,-0.388 -1.069,-1.028 -1.352,-1.488 -0.108,-0.187 -0.215,-0.382 -0.318,-0.581 0.903,-4.773 1.633,-9.461 2.426,-14.161 1.093,-6.577 2.182,-13.124 3.503,-19.539 0.664,-3.2 1.386,-6.38 2.237,-9.434 0.848,-2.999 1.869,-6.101 3.095,-8.209 l 0.238,-0.377 0.014,-0.021 0.003,-0.007 c 1.219,0.367 -6.079,-1.843 -9.155,-2.773 0.261,-0.525 0.542,-1.056 0.848,-1.595 l 0.477,-0.762 0.03,-0.048 0.007,-0.014 c -1.859,-0.572 16.247,4.913 8.583,2.598 v 0.024 l -0.003,0.088 -0.004,0.181 -0.003,0.357 -0.024,1.434 -0.119,2.819 c -0.109,1.862 -0.245,3.707 -0.415,5.532 -0.096,1.047 -0.199,2.089 -0.307,3.128 z"
     id="path6203" /><path
     style="fill:none;stroke:#000;stroke-width:1px;"
     d="m 766.69,210.934 c 1.076,0.871 -1.672,7.129 -10.129,15.916 -8.348,8.798 -23.165,19.301 -43.586,26.853 -20.37,7.619 -45.928,12.28 -74.091,13.226 -28.198,1.07 -59.016,-1.324 -90.758,-6.359 -16.192,-2.683 -30.451,-5.397 -44.965,-6.902 -14.473,-1.392 -28.541,-2.328 -42.016,-2.699 -26.941,-0.835 -51.362,-0.024 -71.848,0.96 -20.496,1.024 -37.07,2.42 -48.54,3.363 -11.456,0.937 -17.881,1.437 -18.371,-0.098 -0.463,-1.417 5.362,-4.831 16.652,-8.474 11.269,-3.647 27.891,-7.501 48.669,-10.599 20.782,-3.054 45.717,-5.556 73.629,-5.856 13.955,-0.194 28.653,0.32 43.912,1.491 7.634,0.821 15.403,1.485 23.288,2.833 8.076,1.164 15.335,2.594 23.114,3.789 30.751,4.879 60.228,7.756 86.89,7.851 26.661,0.205 50.449,-2.577 69.59,-7.66 19.168,-5.039 33.539,-12.372 42.888,-18.484 9.407,-6.057 14.385,-10.258 15.672,-9.151"
     id="path6205" /><path
     style="fill:none;stroke:#000;stroke-width:1px;"
     d="m 710.513,231.361 c -1.242,0.926 -4.398,-0.527 -8.879,-3.762 -2.233,-1.631 -4.732,-3.758 -7.994,-5.866 -1.546,-1.113 -3.197,-2.305 -4.947,-3.568 -0.854,-0.64 -1.729,-1.304 -2.632,-1.981 -0.956,-0.613 -1.94,-1.24 -2.951,-1.883 -15.784,-10.568 -38.769,-23.186 -66.445,-32.886 -6.823,-2.621 -13.7,-4.681 -20.261,-6.904 -6.67,-1.907 -13.04,-4.021 -19.246,-5.601 -12.329,-3.524 -23.625,-6.091 -33.117,-8.535 -19.018,-4.617 -31.074,-7.528 -30.996,-10.725 0.055,-2.999 12.693,-5.716 33.134,-5.018 10.18,0.483 22.327,1.525 35.605,4.099 6.674,1.1 13.565,2.894 20.735,4.63 7.095,2.07 14.469,4.12 21.83,6.939 29.716,10.387 54.358,26.856 68.985,41.836 0.926,0.923 1.855,1.784 2.703,2.7 0.8,0.963 1.58,1.903 2.342,2.819 1.502,1.832 2.894,3.575 4.164,5.216 2.646,3.18 4.396,6.383 5.727,9.029 2.683,5.277 3.486,8.535 2.243,9.461"
     id="path6207" /><path
     style="fill:none;stroke:#000;stroke-width:1px;"
     d="m 749.667,275.622 c 0.456,0.626 -0.446,2.178 -2.618,4.575 -2.159,2.414 -5.567,5.696 -10.398,9.394 -9.543,7.463 -24.5,17.397 -45.282,25.177 -5.25,1.699 -10.728,3.68 -16.56,5.301 -5.9,1.287 -12.018,2.972 -18.46,4 -3.238,0.426 -6.53,0.862 -9.877,1.304 -3.343,0.395 -6.782,1.005 -10.176,1.032 -6.847,0.279 -13.887,0.569 -21.112,0.861 -28.81,0.024 -60.208,-2.911 -92.643,-8.726 -4.052,-0.745 -8.083,-1.484 -12.083,-2.216 -3.994,-0.8 -7.937,-1.747 -11.859,-2.612 -3.919,-0.892 -7.81,-1.777 -11.667,-2.659 -3.844,-1.038 -7.657,-2.07 -11.437,-3.088 -7.534,-1.872 -15.017,-4.579 -22.266,-6.925 -3.251,-1.075 -6.469,-2.138 -9.652,-3.186 -3.268,-0.855 -6.499,-1.699 -9.693,-2.53 -25.926,-5.835 -50.787,-6.336 -71.603,-5.927 -20.877,0.415 -37.989,1.722 -49.952,1.916 -11.974,0.269 -18.753,-0.541 -18.882,-2.073 -0.133,-1.559 6.162,-3.667 17.731,-6.595 11.582,-2.849 28.514,-6.598 50.024,-9.1 10.748,-1.226 22.637,-2.203 35.548,-2.138 12.896,0.04 26.818,0.922 41.403,3.656 3.63,0.797 7.32,1.546 11.035,2.441 3.68,1.086 7.408,2.186 11.174,3.296 6.806,1.951 13.503,4.235 20.843,5.904 3.612,0.912 7.259,1.831 10.932,2.757 3.728,0.8 7.484,1.607 11.27,2.421 3.789,0.793 7.585,1.682 11.443,2.434 3.871,0.698 7.765,1.403 11.681,2.111 31.356,5.625 61.545,9.046 88.895,10.136 6.812,0.037 13.458,0.071 19.917,0.105 3.268,0.154 6.329,-0.252 9.41,-0.432 3.074,-0.215 6.101,-0.422 9.073,-0.627 5.935,-0.551 11.576,-1.709 17.088,-2.434 5.434,-1.062 10.582,-2.444 15.573,-3.527 19.73,-5.291 34.945,-12.519 45.544,-17.486 5.348,-2.431 9.465,-4.487 12.42,-5.672 2.965,-1.171 4.759,-1.495 5.216,-0.868"
     id="path6209" /><path
     style="fill:none;stroke:#000;stroke-width:1px;"
     d="m 761.583,313.072 c 0.715,0.297 1.171,1.049 1.318,2.333 0.132,1.249 0.027,3.207 -0.719,5.181 -0.34,1.029 -0.776,2.166 -1.307,3.405 -0.582,1.158 -1.308,2.342 -2.104,3.64 -1.519,2.703 -3.851,5.141 -6.398,8.035 -5.444,5.256 -13.036,10.704 -22.807,14.262 -2.445,0.827 -5.042,1.406 -7.681,2.087 -2.71,0.786 -5.24,1.014 -7.841,1.283 -2.618,0.252 -5.28,0.511 -7.984,0.773 -2.727,0.32 -5.362,0.071 -8.099,0.095 -21.827,-0.306 -40.58,-5.079 -53.606,-10.132 -6.503,-2.492 -11.6,-5.355 -14.885,-7.745 -3.371,-2.69 -4.716,-4.787 -4.072,-6.193 0.643,-1.407 3.183,-2.047 6.833,-2.104 3.902,-0.242 9.172,0.149 15.763,0.575 13.074,0.912 31.01,2.884 50.154,3.129 2.37,-0.027 4.807,0.262 7.044,0.037 2.264,-0.116 4.498,-0.231 6.694,-0.344 2.209,-0.075 4.422,-0.088 6.22,-0.497 1.893,-0.327 3.796,-0.48 5.617,-0.827 7.259,-1.627 13.595,-4.358 18.964,-6.993 2.469,-1.549 5.073,-2.717 6.993,-4.113 1.056,-0.643 2.04,-1.246 2.949,-1.801 0.827,-0.599 1.634,-1.137 2.407,-1.61 1.651,-0.937 2.693,-1.693 3.806,-2.156 1.079,-0.456 2.026,-0.616 2.741,-0.32"
     id="path6211" /><path
     style="fill:none;stroke:#000;stroke-width:1px;"
     d="m 729.236,415.211 c -5.172,0 -9.36,-3.306 -9.36,-7.381 v -46.521 c 0,-4.079 4.188,-7.381 9.36,-7.381 5.178,0 9.366,3.302 9.366,7.381 v 46.521 c 0,4.075 -4.188,7.381 -9.366,7.381"
     id="path6213" /></svg>